<mxfile host="Electron" modified="2023-10-10T16:44:28.430Z" agent="Mozilla/5.0 (Windows NT 10.0; Win64; x64) AppleWebKit/537.36 (KHTML, like Gecko) draw.io/21.6.1 Chrome/112.0.5615.204 Electron/24.6.1 Safari/537.36" etag="hRQSpseK8j-w7tsqVdEe" version="21.6.1" type="device">
  <diagram name="第 1 页" id="94FGoHokIfyRLg8SMlBK">
    <mxGraphModel dx="1037" dy="704" grid="1" gridSize="10" guides="1" tooltips="1" connect="1" arrows="1" fold="1" page="1" pageScale="1" pageWidth="827" pageHeight="1169" math="0" shadow="0">
      <root>
        <mxCell id="0" />
        <mxCell id="1" parent="0" />
        <mxCell id="RHscD72BlLTgAo2DUHH4-19" value="" style="rounded=0;whiteSpace=wrap;html=1;opacity=0;" vertex="1" parent="1">
          <mxGeometry x="80" y="200" width="780" height="500" as="geometry" />
        </mxCell>
        <mxCell id="RHscD72BlLTgAo2DUHH4-7" value="" style="edgeStyle=orthogonalEdgeStyle;rounded=0;orthogonalLoop=1;jettySize=auto;html=1;strokeWidth=2;fillColor=#dae8fc;strokeColor=#6c8ebf;" edge="1" parent="1" source="RHscD72BlLTgAo2DUHH4-1" target="RHscD72BlLTgAo2DUHH4-2">
          <mxGeometry relative="1" as="geometry" />
        </mxCell>
        <mxCell id="RHscD72BlLTgAo2DUHH4-1" value="&lt;font face=&quot;Comic Sans MS&quot; style=&quot;font-size: 16px;&quot;&gt;main.rs&lt;/font&gt;" style="rounded=1;whiteSpace=wrap;html=1;" vertex="1" parent="1">
          <mxGeometry x="354" y="220" width="120" height="60" as="geometry" />
        </mxCell>
        <mxCell id="RHscD72BlLTgAo2DUHH4-8" value="" style="edgeStyle=orthogonalEdgeStyle;rounded=0;orthogonalLoop=1;jettySize=auto;html=1;strokeWidth=2;fillColor=#dae8fc;strokeColor=#6c8ebf;" edge="1" parent="1" source="RHscD72BlLTgAo2DUHH4-2" target="RHscD72BlLTgAo2DUHH4-4">
          <mxGeometry relative="1" as="geometry" />
        </mxCell>
        <mxCell id="RHscD72BlLTgAo2DUHH4-10" style="edgeStyle=orthogonalEdgeStyle;rounded=0;orthogonalLoop=1;jettySize=auto;html=1;entryX=0.5;entryY=0;entryDx=0;entryDy=0;strokeWidth=2;fillColor=#e1d5e7;strokeColor=#9673a6;" edge="1" parent="1" source="RHscD72BlLTgAo2DUHH4-2" target="RHscD72BlLTgAo2DUHH4-6">
          <mxGeometry relative="1" as="geometry" />
        </mxCell>
        <mxCell id="RHscD72BlLTgAo2DUHH4-2" value="&lt;font face=&quot;Comic Sans MS&quot; style=&quot;font-size: 16px;&quot;&gt;service.rs&lt;/font&gt;" style="rounded=1;whiteSpace=wrap;html=1;" vertex="1" parent="1">
          <mxGeometry x="354" y="320" width="120" height="60" as="geometry" />
        </mxCell>
        <mxCell id="RHscD72BlLTgAo2DUHH4-9" value="" style="edgeStyle=orthogonalEdgeStyle;rounded=0;orthogonalLoop=1;jettySize=auto;html=1;strokeWidth=2;fillColor=#dae8fc;strokeColor=#6c8ebf;" edge="1" parent="1" source="RHscD72BlLTgAo2DUHH4-4" target="RHscD72BlLTgAo2DUHH4-5">
          <mxGeometry relative="1" as="geometry" />
        </mxCell>
        <mxCell id="RHscD72BlLTgAo2DUHH4-11" style="edgeStyle=orthogonalEdgeStyle;rounded=0;orthogonalLoop=1;jettySize=auto;html=1;entryX=0.5;entryY=0;entryDx=0;entryDy=0;strokeWidth=2;fillColor=#e1d5e7;strokeColor=#9673a6;" edge="1" parent="1" source="RHscD72BlLTgAo2DUHH4-4" target="RHscD72BlLTgAo2DUHH4-6">
          <mxGeometry relative="1" as="geometry" />
        </mxCell>
        <mxCell id="RHscD72BlLTgAo2DUHH4-4" value="&lt;font face=&quot;Comic Sans MS&quot; style=&quot;font-size: 16px;&quot;&gt;agg_state.rs&lt;/font&gt;" style="rounded=1;whiteSpace=wrap;html=1;" vertex="1" parent="1">
          <mxGeometry x="354" y="420" width="120" height="60" as="geometry" />
        </mxCell>
        <mxCell id="RHscD72BlLTgAo2DUHH4-13" style="edgeStyle=orthogonalEdgeStyle;rounded=0;orthogonalLoop=1;jettySize=auto;html=1;entryX=0.5;entryY=0;entryDx=0;entryDy=0;strokeWidth=2;fillColor=#e1d5e7;strokeColor=#9673a6;" edge="1" parent="1" source="RHscD72BlLTgAo2DUHH4-5" target="RHscD72BlLTgAo2DUHH4-6">
          <mxGeometry relative="1" as="geometry" />
        </mxCell>
        <mxCell id="RHscD72BlLTgAo2DUHH4-5" value="&lt;font face=&quot;Comic Sans MS&quot; style=&quot;font-size: 16px;&quot;&gt;agg.rs&lt;/font&gt;" style="rounded=1;whiteSpace=wrap;html=1;" vertex="1" parent="1">
          <mxGeometry x="354" y="520" width="120" height="60" as="geometry" />
        </mxCell>
        <mxCell id="RHscD72BlLTgAo2DUHH4-6" value="&lt;font face=&quot;Comic Sans MS&quot; style=&quot;font-size: 16px;&quot;&gt;utils.rs&lt;br&gt;&lt;/font&gt;" style="rounded=1;whiteSpace=wrap;html=1;" vertex="1" parent="1">
          <mxGeometry x="520" y="610" width="120" height="60" as="geometry" />
        </mxCell>
        <mxCell id="RHscD72BlLTgAo2DUHH4-14" value="&lt;font style=&quot;font-size: 14px;&quot; face=&quot;Georgia&quot;&gt;Entrypoint of the crate.&lt;br&gt;Exposing API function to user&lt;br&gt;&lt;/font&gt;" style="text;strokeColor=#d79b00;align=center;fillColor=#ffe6cc;html=1;verticalAlign=middle;whiteSpace=wrap;rounded=0;dashed=1;" vertex="1" parent="1">
          <mxGeometry x="110" y="227.5" width="220" height="45" as="geometry" />
        </mxCell>
        <mxCell id="RHscD72BlLTgAo2DUHH4-15" value="&lt;font style=&quot;font-size: 14px;&quot; face=&quot;Georgia&quot;&gt;Realization of the internal basic action of the role&lt;/font&gt;" style="text;strokeColor=#d79b00;align=center;fillColor=#ffe6cc;html=1;verticalAlign=middle;whiteSpace=wrap;rounded=0;dashed=1;" vertex="1" parent="1">
          <mxGeometry x="110" y="527.5" width="220" height="45" as="geometry" />
        </mxCell>
        <mxCell id="RHscD72BlLTgAo2DUHH4-16" value="&lt;font style=&quot;font-size: 14px;&quot; face=&quot;Georgia&quot;&gt;Realization of the &lt;br&gt;API funciton in main.rs&lt;/font&gt;" style="text;strokeColor=#d79b00;align=center;fillColor=#ffe6cc;html=1;verticalAlign=middle;whiteSpace=wrap;rounded=0;dashed=1;" vertex="1" parent="1">
          <mxGeometry x="100" y="327.5" width="240" height="45" as="geometry" />
        </mxCell>
        <mxCell id="RHscD72BlLTgAo2DUHH4-17" value="&lt;font face=&quot;Georgia&quot;&gt;&lt;span style=&quot;font-size: 14px;&quot;&gt;Served as interface between &lt;br&gt;API function and internal function&lt;br&gt;&lt;/span&gt;&lt;/font&gt;" style="text;strokeColor=#d79b00;align=center;fillColor=#ffe6cc;html=1;verticalAlign=middle;whiteSpace=wrap;rounded=0;dashed=1;" vertex="1" parent="1">
          <mxGeometry x="100" y="427.5" width="240" height="45" as="geometry" />
        </mxCell>
        <mxCell id="RHscD72BlLTgAo2DUHH4-18" value="&lt;font style=&quot;font-size: 14px;&quot; face=&quot;Georgia&quot;&gt;Providing general &lt;br&gt;function to entire crate.&lt;br&gt;&lt;/font&gt;" style="text;strokeColor=#d79b00;align=center;fillColor=#ffe6cc;html=1;verticalAlign=middle;whiteSpace=wrap;rounded=0;dashed=1;" vertex="1" parent="1">
          <mxGeometry x="657" y="607.5" width="170" height="62.5" as="geometry" />
        </mxCell>
        <mxCell id="RHscD72BlLTgAo2DUHH4-20" value="&lt;font size=&quot;1&quot; style=&quot;&quot; face=&quot;Garamond&quot;&gt;&lt;b style=&quot;font-size: 25px;&quot;&gt;General Structure of each role&#39;s Code&lt;/b&gt;&lt;/font&gt;" style="text;strokeColor=none;align=center;fillColor=none;html=1;verticalAlign=middle;whiteSpace=wrap;rounded=0;" vertex="1" parent="1">
          <mxGeometry x="597" y="250" width="230" height="30" as="geometry" />
        </mxCell>
      </root>
    </mxGraphModel>
  </diagram>
</mxfile>
